<svg width="32" height="32" viewBox="0 0 32 32" fill="none" xmlns="http://www.w3.org/2000/svg">
<path d="M30.4879 1.14009C29.8811 -0.367774 28.157 -0.503444 28.2117 1.48278C28.7741 4.99753 28.992 9.03805 27.7864 11.6904C26.8879 13.6668 29.2019 18.1186 29.2093 18.1425C33.2372 13.2485 32.1947 6.28147 30.4879 1.14009Z" fill="url(#paint0_linear_2_9767)"/>
<path d="M30.4253 0.997922C30.2208 0.52425 29.7141 -0.000121192 29.0748 0.00504272C30.0754 4.3662 30.6821 11.0619 28.5938 14.4809C27.4567 16.3422 29.2035 18.1205 29.2104 18.1445C33.187 13.0125 32.1189 6.04776 30.4253 0.997922Z" fill="url(#paint1_linear_2_9767)"/>
<path d="M4.21365 11.6904C3.00806 9.03805 3.2264 4.99753 3.78829 1.48278C3.84251 -0.503444 2.1189 -0.367774 1.51216 1.14009C-0.194697 6.28147 -1.23714 13.2485 2.7907 18.1425C2.79809 18.1186 5.11168 13.6668 4.21365 11.6904Z" fill="url(#paint2_linear_2_9767)"/>
<path d="M3.40503 14.4801C1.31669 11.0616 1.90519 4.3626 2.90574 0.00143766C2.32512 -0.0323625 1.78837 0.536607 1.57446 0.993848C-0.196465 6.08359 -1.25666 13.1957 2.78794 18.1437C2.80371 18.1634 4.54211 16.3415 3.40503 14.4801Z" fill="url(#paint3_linear_2_9767)"/>
<path d="M5.75724 12.6017C4.86512 9.99583 5.75724 5.84546 5.75724 5.84546C5.75724 5.84546 0.990071 9.2128 1.81614 16.3554C2.18581 19.5505 9.02653 20.9161 9.02653 20.9161C9.02653 20.9161 6.82038 15.7076 5.75724 12.6017Z" fill="#CCE297"/>
<path d="M3.68318 14.349C2.79107 11.7431 5.75724 5.84546 5.75724 5.84546C5.75724 5.84546 0.990071 9.2128 1.81614 16.3554C2.18581 19.5505 9.02653 20.9161 9.02653 20.9161C9.02653 20.9161 4.74633 17.4549 3.68318 14.349Z" fill="url(#paint4_linear_2_9767)"/>
<path d="M26.2751 5.84546C26.2751 5.84546 27.1672 9.99583 26.2751 12.6017C25.2119 15.7071 23.0058 20.9156 23.0058 20.9156C23.0058 20.9156 29.8465 19.55 30.2162 16.355C31.0418 9.2128 26.2751 5.84546 26.2751 5.84546Z" fill="#CCE297"/>
<path d="M26.2751 5.84546C26.2751 5.84546 29.2413 11.7431 28.3491 14.349C27.286 17.4544 23.0058 20.9156 23.0058 20.9156C23.0058 20.9156 29.8465 19.55 30.2162 16.355C31.0418 9.2128 26.2751 5.84546 26.2751 5.84546Z" fill="url(#paint5_linear_2_9767)"/>
<path d="M25.1447 9.749C24.9944 9.5922 25.92 13.1778 24.4552 14.8383C20.828 18.7351 17.8293 16.5109 15.9229 21.9795C15.8785 22.1072 15.7035 20.3439 13.6822 18.7783C11.9946 17.4714 8.54342 16.5226 7.3048 14.8383C5.86361 12.8793 6.79763 9.66168 6.70151 9.749C5.32341 10.9977 3.59882 13.0455 4.03354 16.3011C4.60676 20.5942 8.64495 20.5435 10.6658 23.0465C14.1002 27.3002 12.7093 31.0637 15.9229 31.9116C16.8027 31.8458 17.8052 30.7797 18.336 29.2029C18.8949 27.541 19.2168 25.7252 20.8354 23.4568C22.6773 20.8758 25.0575 20.8876 26.5238 19.3525C28.9414 16.8217 28.5185 13.2666 25.1447 9.749Z" fill="url(#paint6_linear_2_9767)"/>
<path d="M25.1438 9.75302C24.9837 9.60515 28.1721 13.5846 25.6609 17.0609C23.5617 19.3931 21.53 19.9438 19.3692 22.2323C17.2562 24.4702 17.4692 28.3666 16.0083 29.7843C15.9757 29.8158 15.3424 29.2477 14.9742 28.2248C14.2255 26.1433 13.8332 22.9661 11.699 21.3296C10.0049 20.0306 6.92196 18.265 5.8386 16.4863C3.86263 13.2429 6.79677 9.66618 6.70065 9.75302C5.32255 11.0018 3.33574 13.1485 3.77047 16.4041C4.34369 20.6972 8.64409 20.632 10.6649 23.1351C14.0993 27.3887 12.7084 31.1523 15.922 32.0001C16.8018 31.9344 17.8043 30.8683 18.3352 29.2914C18.8941 27.6295 19.2159 25.8137 20.8346 23.5454C22.6765 20.9643 25.0566 20.9761 26.5229 19.441C28.9405 16.9097 29.0549 13.3635 25.1438 9.75302Z" fill="url(#paint7_linear_2_9767)"/>
<defs>
<linearGradient id="paint0_linear_2_9767" x1="26.0003" y1="16.9693" x2="31.8639" y2="0.931281" gradientUnits="userSpaceOnUse">
<stop offset="0.4525" stop-color="#2B4A9F"/>
<stop offset="1" stop-color="#44A474"/>
</linearGradient>
<linearGradient id="paint1_linear_2_9767" x1="32.1716" y1="0.855558" x2="27.2993" y2="17.588" gradientUnits="userSpaceOnUse">
<stop stop-color="#7DAF72"/>
<stop offset="1" stop-color="#153641"/>
</linearGradient>
<linearGradient id="paint2_linear_2_9767" x1="-0.720692" y1="16.8586" x2="5.15504" y2="0.787589" gradientUnits="userSpaceOnUse">
<stop offset="0.4246" stop-color="#2B4A9F"/>
<stop offset="1" stop-color="#44A474"/>
</linearGradient>
<linearGradient id="paint3_linear_2_9767" x1="-1.66497" y1="6.78747" x2="6.66675" y2="11.4387" gradientUnits="userSpaceOnUse">
<stop stop-color="#70AC73"/>
<stop offset="1" stop-color="#153641"/>
</linearGradient>
<linearGradient id="paint4_linear_2_9767" x1="1.69377" y1="8.86894" x2="10.0768" y2="20.1344" gradientUnits="userSpaceOnUse">
<stop offset="0.5196" stop-color="#3F976E"/>
<stop offset="0.6704" stop-color="#2A6356"/>
</linearGradient>
<linearGradient id="paint5_linear_2_9767" x1="20.6049" y1="14.9592" x2="29.8742" y2="11.2234" gradientUnits="userSpaceOnUse">
<stop offset="0.5475" stop-color="#2A6356"/>
<stop offset="0.8492" stop-color="#3F976E"/>
</linearGradient>
<linearGradient id="paint6_linear_2_9767" x1="3.96504" y1="20.8282" x2="28.0587" y2="20.8282" gradientUnits="userSpaceOnUse">
<stop stop-color="#44A474"/>
<stop offset="0.9944" stop-color="#2B4A9F"/>
</linearGradient>
<linearGradient id="paint7_linear_2_9767" x1="3.7093" y1="20.8748" x2="28.2306" y2="20.8748" gradientUnits="userSpaceOnUse">
<stop stop-color="#2B4A9F"/>
<stop offset="1" stop-color="#44A474"/>
</linearGradient>
</defs>
</svg>
